<svg width="122" height="48" viewBox="0 0 122 48" fill="none" xmlns="http://www.w3.org/2000/svg">
<path d="M65.728 23.6H60.772V28.5H57.776V23.6H52.82V20.8H57.776V15.9H60.772V20.8H65.728V23.6Z" fill="white"/>
<path d="M42.0057 29.0238C41.5586 27.888 40.8948 27.0623 40.3419 26.5168C39.8431 26.0252 39.4332 25.7572 39.3102 25.6802L30.2949 19.7857C31.2084 19.266 32.2989 18.6462 33.3549 18.0453C34.4375 17.4292 35.4826 16.8349 36.2582 16.3938C36.6463 16.1733 36.9669 15.9907 37.1913 15.8628C37.304 15.7989 37.3919 15.7485 37.4523 15.7144L37.5211 15.6754C37.6452 15.6131 38.1975 15.3324 38.8082 14.9807C39.1395 14.7895 39.4859 14.5793 39.8017 14.3598C39.9602 14.2493 40.1109 14.1371 40.2554 14.0141C40.4001 13.8884 40.5391 13.7611 40.6848 13.5611C40.9143 13.2491 41.0329 12.8519 41.0284 12.5084C41.0257 12.0868 40.8903 11.7634 40.7569 11.5228C40.62 11.2812 40.4738 11.1088 40.3546 10.981C40.2129 10.8331 40.1058 10.7583 39.9934 10.6781C39.8826 10.6012 39.7707 10.5329 39.6565 10.4684C39.6565 10.4684 39.6565 10.4684 39.6559 10.4684C37.5859 9.29699 24.3589 1.81438 24.3589 1.81438L24.3585 1.81546C23.3423 1.18586 22.2717 0.998385 21.3958 1.00001C21.0489 1.00001 20.7286 1.02819 20.4427 1.06882C19.9657 1.13763 19.5324 1.27688 19.1401 1.43185C18.7483 1.58681 18.4004 1.76019 18.1183 1.91353C16.6922 2.68888 13.4935 4.43356 10.0366 6.35705L10.0377 6.35651L10.0205 6.36625L10.0177 6.36788L7.87068 7.56748L7.86903 7.56857C7.47839 7.78746 7.08777 8.00745 6.70047 8.2258C4.06583 9.71149 2.48005 11.2486 1.54145 12.5593C0.601175 13.8684 0.317486 14.9428 0.238808 15.4532L0.205009 15.6689L0.0520827 16.3239L0.0443256 16.3944C0.0144054 16.675 0 16.9503 0 17.2196C0 18.4446 0.294215 19.5261 0.682625 20.4147C1.07159 21.3044 1.55253 22.0065 1.95146 22.505C2.23627 22.8563 2.55708 23.1362 2.82525 23.365C3.09175 23.5887 3.29898 23.742 3.31228 23.7518L3.3422 23.774L10.528 28.417C8.35771 29.7266 4.59829 31.9983 3.11835 32.893C2.91223 33.0191 2.51827 33.255 2.12766 33.6006C1.93151 33.7762 1.72983 33.9809 1.55031 34.2546C1.4611 34.3916 1.37799 34.5471 1.31372 34.7293C1.25 34.9101 1.20567 35.1192 1.20623 35.3452C1.20623 35.381 1.20789 35.4266 1.21177 35.477H1.21121C1.21121 35.478 1.21177 35.4791 1.21177 35.4801C1.21232 35.4835 1.21177 35.4855 1.21232 35.4889H1.21343C1.23837 35.8025 1.3248 36.0898 1.44116 36.3271C1.61957 36.6895 1.8545 36.9371 2.04455 37.1001C2.19636 37.2292 2.32158 37.3071 2.39917 37.3506L10.1463 41.8672L18.2253 46.3265L18.2347 46.3319C18.3433 46.3861 19.4908 46.9952 21.2378 47C22.4175 47.0037 23.8735 46.6955 25.3268 45.7538L38.2086 38.4988L38.2098 38.4981C38.9799 38.0609 40.035 37.4541 40.9175 36.4007C41.3574 35.8751 41.7486 35.2374 42.0274 34.4815C42.3073 33.7258 42.4745 32.8566 42.4979 31.8672C42.4994 31.8033 42.5 31.7399 42.5 31.6782C42.5 30.6714 42.3032 29.779 42.0057 29.0238ZM7.90502 10.2663C8.29012 10.0491 8.67852 9.83015 9.06804 9.61178L9.06638 9.61287L11.2112 8.41436L11.2278 8.40514L11.2289 8.40459C14.6753 6.48709 17.869 4.74511 19.2902 3.97248C19.5063 3.85488 19.7745 3.72268 20.0454 3.61541C20.3153 3.50758 20.589 3.42794 20.7918 3.4003C20.9774 3.37374 21.183 3.35641 21.3968 3.35641C21.9542 3.35804 22.5443 3.46965 23.0996 3.82185L23.1255 3.83864L23.1527 3.85382C23.1534 3.85434 23.3593 3.97085 23.725 4.17782C26.2523 5.60715 36.3653 11.3288 38.3688 12.4623C38.2591 12.5376 38.135 12.6184 38.0031 12.6997C37.6446 12.9213 37.2389 13.1467 36.9266 13.3135C36.7704 13.397 36.6367 13.4669 36.5426 13.5151C36.4467 13.5644 36.3979 13.5888 36.3913 13.592L36.3664 13.6045L36.3413 13.6186L36.3075 13.6376C36.0251 13.7979 33.7405 15.0983 31.491 16.3781C30.3663 17.018 29.2498 17.6525 28.3977 18.1374C27.9992 18.3639 27.6613 18.5557 27.4042 18.7015C27.387 18.7101 27.3681 18.7177 27.3522 18.7264C27.2236 18.7968 27.1171 18.8613 26.9782 18.9361C26.568 19.155 25.9558 19.4221 25.1602 19.4226C24.5268 19.4194 23.7533 19.2601 22.7815 18.6706L22.7726 18.6619L22.6623 18.5996H22.6619L20.3125 17.2732L10.3635 11.6561L10.3624 11.6556L10.3341 11.6393L10.3169 11.6323C10.3097 11.6285 10.3042 11.6258 10.2948 11.6209C10.2865 11.6165 10.2776 11.6117 10.2682 11.6068C10.2532 11.5992 10.2405 11.5922 10.2233 11.5835C10.2211 11.5824 10.2172 11.5808 10.215 11.5797C10.1651 11.5542 10.1036 11.5239 10.0338 11.4897C10.0205 11.4832 10.0083 11.4773 9.9939 11.4708C9.97618 11.4627 9.96122 11.4551 9.94237 11.4464C9.90027 11.4269 9.84984 11.4047 9.80275 11.3836C9.77118 11.3695 9.74347 11.3565 9.70966 11.3418C9.60938 11.298 9.50022 11.2524 9.3822 11.2064C9.36282 11.1988 9.34065 11.1912 9.3207 11.1836C9.22097 11.1451 9.11736 11.1072 9.00764 11.0698C8.99213 11.0644 8.97938 11.059 8.96387 11.0541C8.9334 11.0438 8.89906 11.0352 8.86803 11.0249C8.80485 11.0043 8.74391 10.9831 8.67797 10.9636C8.64695 10.9544 8.61258 10.9468 8.58101 10.9376C8.52616 10.9219 8.47019 10.9078 8.41368 10.8927C8.31783 10.8677 8.21976 10.845 8.1189 10.8233C8.0552 10.8098 7.99257 10.7962 7.92719 10.7838C7.81526 10.7626 7.70058 10.7464 7.58366 10.7312C7.52716 10.7242 7.47284 10.7149 7.41578 10.709C7.34098 10.7014 7.26453 10.6982 7.18805 10.6938C7.41744 10.5513 7.65183 10.4094 7.90502 10.2663ZM19.8454 44.4344C19.6792 44.3834 19.5523 44.333 19.4736 44.2996L19.3933 44.2632H19.3927L11.3586 39.8288L3.71841 35.3745C3.77938 35.3176 3.85583 35.2537 3.93784 35.1934C4.09464 35.077 4.26196 34.9735 4.38664 34.8982C5.44604 34.2578 7.67565 32.9104 9.6526 31.7167C10.6411 31.1195 11.5664 30.561 12.2501 30.1485C12.4346 30.0375 12.5992 29.9377 12.7449 29.8501C12.8906 29.9444 13.0574 30.0527 13.2441 30.1736C13.8447 30.5686 16.0583 32.0238 18.3068 33.5019C19.6238 34.3673 20.9503 35.2397 21.968 35.9081C22.4772 36.2425 22.909 36.5264 23.2237 36.7328C23.5316 36.9356 23.7212 37.059 23.7749 37.0943C23.7783 37.0964 23.7815 37.0987 23.7849 37.1014C24.1644 37.349 24.4471 37.6214 24.6698 37.8863C24.8876 38.1617 25.0482 38.4195 25.153 38.6238C25.2327 38.7794 25.2837 38.904 25.313 38.982L25.3385 39.0558C25.3678 39.1781 25.3933 39.2983 25.4144 39.415C25.4815 39.7845 25.5098 40.1246 25.5098 40.4379C25.5074 41.6159 25.1152 42.442 24.7252 43.0051C24.5302 43.284 24.3357 43.491 24.1989 43.6211C24.13 43.6861 24.0763 43.7317 24.0442 43.7576L24.0314 43.7674C22.9721 44.4572 22.028 44.6381 21.2395 44.6418C20.6649 44.6425 20.1779 44.5373 19.8454 44.4344V44.4344ZM39.759 33.6796C39.4814 34.4236 39.0768 34.9411 38.5966 35.3772C38.1161 35.8107 37.5566 36.1454 37.0041 36.4559L37.0052 36.4555L27.8203 41.6282C27.8834 41.2554 27.9206 40.859 27.92 40.4372C27.92 40.2716 27.9134 40.1014 27.9017 39.9285C27.8713 39.4723 27.801 38.9939 27.68 38.4937V38.4933C27.68 38.4933 27.68 38.4933 27.68 38.4927L27.6779 38.4841L27.6739 38.4695C27.6739 38.4689 27.6728 38.4657 27.6728 38.4651C27.639 38.335 27.5077 37.874 27.1588 37.2699C26.9913 36.9805 26.7686 36.6575 26.4856 36.3299C26.3381 36.1509 26.1779 35.97 25.9941 35.7875C25.9069 35.7034 25.8649 35.6731 25.8096 35.6286C25.7087 35.5502 25.5907 35.4651 25.4384 35.3578C24.8742 34.9605 23.857 34.2799 22.6296 33.4685C19.985 31.7198 16.3885 29.383 14.5772 28.2084C14.4814 28.1454 14.4254 28.1086 14.4249 28.1082L14.4238 28.1069L13.5084 27.5154C13.4613 27.4849 13.4347 27.4678 13.4347 27.4678L12.8258 27.0738H12.8252L4.73958 21.8473C4.68584 21.8067 4.54289 21.6967 4.37555 21.5553C4.17276 21.3867 3.93618 21.1603 3.84863 21.047C3.54943 20.6742 3.18374 20.1373 2.8995 19.4855C2.61469 18.8326 2.41079 18.0702 2.41079 17.2163C2.41079 17.0446 2.42188 16.8674 2.43961 16.687L2.57204 16.1186C2.60527 16.0178 2.64184 15.9262 2.67731 15.833C2.70723 15.7556 2.7366 15.6759 2.76817 15.6033C2.80141 15.5269 2.83632 15.457 2.87124 15.3855C2.90447 15.3178 2.93662 15.2484 2.97152 15.185C3.00864 15.1173 3.04687 15.0555 3.08567 14.9932C3.12112 14.9347 3.15658 14.8746 3.19315 14.8204C3.23249 14.7624 3.27295 14.7093 3.31339 14.6556C3.34996 14.6069 3.38598 14.557 3.4231 14.5115C3.49014 14.4297 3.56161 14.3609 3.63143 14.2883C3.68904 14.2287 3.74502 14.1637 3.80486 14.1095C3.87466 14.0461 3.9478 13.993 4.01984 13.9366C4.08189 13.8884 4.14173 13.8353 4.20546 13.792C4.28192 13.7394 4.36171 13.6966 4.44038 13.6511C4.50243 13.6153 4.56282 13.5747 4.626 13.5427C4.70745 13.501 4.79166 13.468 4.87477 13.4322C4.93795 13.4051 5 13.3742 5.06428 13.3504C5.15126 13.3179 5.24046 13.2935 5.32857 13.2664C5.39006 13.248 5.45103 13.2252 5.51253 13.2095C5.60783 13.1846 5.70257 13.1672 5.79732 13.1488C5.85217 13.138 5.90759 13.1234 5.96188 13.1142C6.06549 13.0968 6.16633 13.086 6.26773 13.0751C6.31206 13.0703 6.35749 13.0621 6.40071 13.0583C6.54366 13.0453 6.6833 13.0383 6.81683 13.0356L6.87223 13.035C6.99357 13.034 7.12156 13.0432 7.25343 13.0605C7.30941 13.0675 7.36757 13.0816 7.42465 13.0914C7.5011 13.1049 7.57758 13.1158 7.65459 13.1331C7.72219 13.1488 7.78813 13.1689 7.85462 13.1868C7.91998 13.2046 7.98703 13.2198 8.05076 13.2393C8.125 13.2621 8.19315 13.2881 8.26351 13.313C8.31504 13.3314 8.36991 13.3482 8.41866 13.3666C8.49014 13.3937 8.55109 13.4203 8.61482 13.4468C8.65415 13.4631 8.69958 13.4804 8.73615 13.4961C8.80154 13.5248 8.85362 13.5498 8.90681 13.5747C8.93119 13.5861 8.96221 13.5996 8.98382 13.6099C9.0481 13.6414 9.09685 13.6663 9.13453 13.6858C9.13731 13.6869 9.14228 13.6896 9.14451 13.6907L9.19271 13.7161L9.21043 13.7253L9.59939 13.9448L21.4206 20.619C22.7333 21.4783 24.0359 21.8039 25.1447 21.8002C26.3902 21.7985 27.3609 21.4203 27.9703 21.0996L38.0003 27.6568L38.0148 27.6653C38.0165 27.6666 38.0475 27.6854 38.1051 27.7266C38.3129 27.874 38.8265 28.2853 39.267 28.9393C39.708 29.5976 40.0875 30.4759 40.0898 31.6759C40.0898 31.7211 40.0892 31.7654 40.0881 31.8099C40.0682 32.5765 39.943 33.1822 39.759 33.6796V33.6796Z" fill="white"/>
<g clip-path="url(#clip0_404_86)">
<path d="M117.339 0H79.5822C77.0515 0 75 2.09867 75 4.6875V43.3125C75 45.9013 77.0515 48 79.5822 48H117.339C119.87 48 121.921 45.9013 121.921 43.3125V4.6875C121.921 2.09867 119.87 0 117.339 0Z" fill="#0079BF"/>
<path d="M113.622 6.24023H103.71C102.495 6.24023 101.511 7.24759 101.511 8.49023V24.9902C101.511 26.2329 102.495 27.2402 103.71 27.2402H113.622C114.837 27.2402 115.822 26.2329 115.822 24.9902V8.49023C115.822 7.24759 114.837 6.24023 113.622 6.24023Z" fill="white"/>
<path d="M93.2112 6.24023H83.299C82.0843 6.24023 81.0996 7.24759 81.0996 8.49023V36.9902C81.0996 38.2329 82.0843 39.2402 83.299 39.2402H93.2112C94.4259 39.2402 95.4106 38.2329 95.4106 36.9902V8.49023C95.4106 7.24759 94.4259 6.24023 93.2112 6.24023Z" fill="white"/>
</g>
<defs>
<clipPath id="clip0_404_86">
<rect x="75" width="46.9213" height="48" fill="white"/>
</clipPath>
</defs>
</svg>
